<svg width="167" height="47" viewBox="0 0 167 47" fill="none" xmlns="http://www.w3.org/2000/svg">
<path d="M46.9456 0H0V46.9692H46.9456V0Z" fill="white"/>
<path d="M45.2403 1.70093H1.7002V45.2628H45.2403V1.70093Z" fill="#014C94"/>
<path fill-rule="evenodd" clip-rule="evenodd" d="M45.2403 45.2629H1.7002V31.9138L25.6387 17.686L45.2403 30.1455V45.2629Z" fill="#3A8245"/>
<path d="M46.2707 33.7748C37.364 30.4111 30.895 25.5667 26.1161 18.7575C19.507 26.3089 10.544 31.408 0.676758 33.2254C8.56651 23.0799 14.1896 17.9243 18.5192 12.5341C19.6871 11.0788 21.066 9.40879 21.9793 7.98438C35.8832 11.3608 44.0822 23.753 46.2707 33.7748Z" fill="white"/>
<path d="M27.321 36.8364C25.2872 34.5879 25.8948 31.8701 27.3319 30.5785C28.2761 29.7307 32.3219 29.9181 34.4012 32.0793C34.8469 32.5086 35.1853 33.0343 35.3927 33.6183C35.6 34.2004 35.6692 34.8244 35.5964 35.4375C35.5218 36.0523 35.3072 36.6399 34.9688 37.1566C34.6286 37.6732 34.1756 38.1044 33.6408 38.4155C32.1236 39.3942 29.9533 39.7471 27.3228 36.8401" fill="#F0A31F"/>
<path fill-rule="evenodd" clip-rule="evenodd" d="M73.9095 30.6131L64.7281 8.8703H60.9515L51.8447 30.6131H55.3248L57.3968 25.5248H68.0245L70.0965 30.6131H73.9095ZM67.0985 23.1726H58.2864L61.5082 15.443C61.9666 14.3769 62.3505 13.2782 62.6543 12.1594H62.7288C63.0108 13.2709 63.3837 14.3587 63.8404 15.4102L67.0985 23.1726Z" fill="#014C94"/>
<path d="M97 9.51248C94.7697 8.89396 92.4666 8.58105 90.1544 8.58105C81.7517 8.58105 76.6416 13.5074 76.6416 20.1765C76.6416 26.9074 81.4915 30.9005 89.0447 30.9005C91.8444 30.8969 94.6259 30.473 97.3001 29.6434V19.5325H93.931V27.746C92.4939 28.1317 91.0131 28.3264 89.525 28.3227C83.8983 28.3227 80.269 25.2319 80.269 19.8199C80.269 14.024 84.6751 11.1243 89.8197 11.1243C92.0918 11.1297 94.3458 11.5208 96.4851 12.2831L97 9.51248Z" fill="#014C94"/>
<path d="M123.933 22.3049V8.87396H120.603V22.5305C120.603 26.9129 118.567 28.4901 114.197 28.4901C109.162 28.4901 108.014 26.0761 108.014 23.0799V8.87396H104.608V23.3036C104.608 27.1676 106.164 30.9369 113.975 30.9369C120.49 30.9369 123.933 28.0007 123.933 22.3049Z" fill="#014C94"/>
<path fill-rule="evenodd" clip-rule="evenodd" d="M149.164 30.6131L139.986 8.8703H136.209L127.101 30.6131H130.581L132.651 25.5248H143.278L145.352 30.6131H149.164ZM142.354 23.1726H133.542L136.764 15.443C137.222 14.3769 137.606 13.2782 137.91 12.1594H137.985C138.267 13.2709 138.638 14.3587 139.096 15.4102L142.354 23.1726Z" fill="#014C94"/>
<path d="M167 24.2023C167 17.4059 155.707 19.1141 155.707 14.4115C155.707 12.3831 157.486 11.0297 160.89 11.0297C162.412 11.046 163.928 11.2389 165.405 11.6063L165.592 8.96672C164.101 8.71022 162.591 8.58105 161.077 8.58105C155.451 8.58105 152.192 11.1588 152.192 14.7317C152.192 21.6555 163.448 19.7235 163.448 24.6189C163.448 27.2931 160.966 28.3555 157.97 28.3555C156.224 28.3318 154.49 28.0608 152.82 27.5496L152.636 30.3875C154.292 30.7368 155.98 30.9078 157.672 30.9005C163.482 30.9005 167 28.099 167 24.2023Z" fill="#014C94"/>
<path fill-rule="evenodd" clip-rule="evenodd" d="M79.3578 44.99C79.3432 44.3369 79.3269 43.5255 79.3269 42.8088V39.7835C79.3269 38.2718 78.7011 37.2494 76.5235 37.2494C75.6103 37.2567 74.7061 37.444 73.8657 37.7988L74.0039 38.9721C74.7025 38.5756 75.4902 38.3591 76.2943 38.3464C77.5459 38.3464 77.9588 38.9103 77.9588 39.9636V40.5275C75.09 40.5275 73.3945 41.5808 73.3945 43.2454C73.3945 44.4497 74.2495 45.1228 75.5011 45.1228C76.0469 45.141 76.5854 44.9918 77.0456 44.6989C77.5059 44.4042 77.8661 43.9785 78.0807 43.4746H78.1116C78.0443 43.9749 78.0189 44.4806 78.0352 44.9845L79.3578 44.99ZM77.9534 41.6318C77.9534 42.8233 77.1293 44.0458 75.8923 44.0458C75.7449 44.0622 75.5957 44.0476 75.4538 44.0022C75.3119 43.9567 75.1828 43.8821 75.0736 43.782C74.9645 43.682 74.8772 43.5601 74.8171 43.4237C74.7589 43.2872 74.728 43.1399 74.7316 42.9925C74.7316 42.3085 75.3138 41.4972 77.9534 41.4972V41.6318Z" fill="#014C94"/>
<path d="M91.271 44.9918V39.678C91.271 38.3354 90.7235 37.2512 88.9825 37.2512C88.4113 37.2312 87.8455 37.3895 87.3671 37.7042C86.8886 38.0189 86.5193 38.4719 86.3083 39.0049L86.2774 38.9903C86.3629 38.4664 86.4029 37.9352 86.3975 37.404H85.0713V44.9936H86.4411V41.3462C86.4411 39.6671 87.3416 38.3991 88.5932 38.3991C89.601 38.3991 89.8921 39.0249 89.8921 40.0946V44.9936H91.271V44.9918Z" fill="#014C94"/>
<path fill-rule="evenodd" clip-rule="evenodd" d="M103.569 44.99V33.8421H102.2V37.3713C101.774 37.3222 101.346 37.2949 100.919 37.2913C98.5213 37.2913 96.9932 38.8939 96.9932 41.5518C96.9932 43.7693 97.9264 45.1264 99.7856 45.1264C100.333 45.1355 100.87 44.9791 101.325 44.6753C101.779 44.3715 102.132 43.9385 102.336 43.4291L102.365 43.4437C102.282 43.9531 102.241 44.4679 102.245 44.9845L103.569 44.99ZM102.2 41.0642C102.2 42.394 101.499 43.9931 100.124 43.9931C98.9779 43.9931 98.4449 43.0635 98.4449 41.4299C98.4449 39.245 99.4054 38.3755 100.857 38.3755C101.31 38.3718 101.763 38.4301 102.201 38.5447L102.2 41.0642Z" fill="#014C94"/>
<path fill-rule="evenodd" clip-rule="evenodd" d="M111.118 35.2501C111.118 35.1319 111.093 35.0155 111.048 34.9063C111 34.7972 110.933 34.6989 110.849 34.6171C110.764 34.5352 110.664 34.4697 110.553 34.4279C110.442 34.3842 110.325 34.3642 110.207 34.3678C110.087 34.3624 109.967 34.3824 109.854 34.426C109.741 34.4697 109.639 34.5334 109.552 34.6171C109.465 34.7007 109.398 34.8008 109.35 34.9118C109.303 35.0227 109.279 35.141 109.279 35.261C109.279 35.3811 109.303 35.5012 109.35 35.6103C109.398 35.7213 109.467 35.8213 109.552 35.905C109.639 35.9887 109.741 36.0542 109.854 36.096C109.967 36.1397 110.087 36.1579 110.207 36.1543C110.447 36.1543 110.678 36.0597 110.849 35.8905C111.017 35.7195 111.115 35.4903 111.118 35.2501ZM110.891 37.4022H109.516V44.9918H110.891V37.4022Z" fill="#014C94"/>
<path d="M123.036 44.9918V39.678C123.036 38.3355 122.485 37.2512 120.747 37.2512C120.176 37.233 119.612 37.3913 119.134 37.7042C118.655 38.0171 118.286 38.4719 118.075 39.0049L118.044 38.9904C118.13 38.4664 118.171 37.9352 118.166 37.404H116.84V44.9936H118.21V41.3462C118.21 39.6671 119.11 38.3991 120.362 38.3991C121.37 38.3991 121.657 39.0249 121.657 40.0946V44.9936H123.036V44.9918Z" fill="#014C94"/>
<path fill-rule="evenodd" clip-rule="evenodd" d="M134.721 44.99C134.702 44.3369 134.691 43.5255 134.691 42.8088V39.7835C134.691 38.2718 134.064 37.2494 131.883 37.2494C130.969 37.2567 130.067 37.444 129.227 37.7988L129.361 38.9721C130.06 38.5756 130.849 38.3609 131.652 38.3464C132.901 38.3464 133.314 38.9103 133.314 39.9636V40.5275C130.445 40.5275 128.75 41.5808 128.75 43.2454C128.75 44.4497 129.605 45.1228 130.857 45.1228C131.404 45.141 131.943 44.9918 132.401 44.6989C132.861 44.4042 133.223 43.9785 133.436 43.4746H133.467C133.4 43.9749 133.374 44.4806 133.391 44.9845L134.721 44.99ZM133.316 41.6318C133.316 42.8233 132.492 44.0458 131.255 44.0458C131.108 44.0622 130.958 44.0476 130.818 44.0022C130.677 43.9567 130.547 43.8821 130.438 43.782C130.329 43.682 130.242 43.5601 130.182 43.4237C130.123 43.2872 130.094 43.1399 130.098 42.9925C130.098 42.3085 130.677 41.4972 133.316 41.4972V41.6318Z" fill="#014C94"/>
<path d="M145.399 42.7142C145.399 40.1637 141.859 41.0642 141.859 39.4014C141.859 38.7429 142.361 38.3172 143.371 38.3172C143.889 38.3208 144.402 38.4027 144.895 38.5592L144.926 37.4149C144.45 37.3185 143.964 37.2675 143.476 37.2621C141.492 37.2621 140.438 38.2554 140.438 39.5379C140.438 42.2121 143.966 41.1678 143.966 42.8651C143.966 43.5655 143.276 44.0258 142.27 44.0258C141.706 44.0221 141.146 43.9348 140.608 43.7656L140.564 44.9881C141.092 45.0827 141.628 45.1282 142.167 45.1227C144.181 45.1227 145.403 44.084 145.403 42.7087" fill="#014C94"/>
<path fill-rule="evenodd" clip-rule="evenodd" d="M149.887 44.2841L149.369 43.5564C149.312 43.4819 149.254 43.4018 149.192 43.3218C149.343 43.309 149.483 43.2381 149.585 43.1271C149.687 43.0161 149.743 42.8706 149.741 42.7196C149.741 42.2794 149.434 42.1138 148.959 42.1138C148.712 42.1138 148.508 42.1138 148.339 42.1266V44.2859H148.755V43.3927H148.774L149.372 44.2859L149.887 44.2841ZM149.307 42.7596C149.307 42.9616 149.154 43.0853 148.905 43.0853C148.839 43.0853 148.783 43.0853 148.754 43.0798V42.4577C148.808 42.4504 148.863 42.4467 148.917 42.4467C149.178 42.4467 149.307 42.5486 149.307 42.756" fill="#014C94"/>
<path d="M149.052 41.3661C149.414 41.3661 149.768 41.4735 150.068 41.6754C150.37 41.8773 150.605 42.163 150.743 42.4995C150.882 42.8342 150.918 43.2035 150.847 43.5583C150.776 43.9148 150.601 44.2404 150.345 44.497C150.088 44.7535 149.761 44.9281 149.406 44.9972C149.05 45.0682 148.682 45.0318 148.347 44.8917C148.013 44.7535 147.727 44.517 147.525 44.215C147.325 43.913 147.218 43.5583 147.218 43.1962C147.218 42.9561 147.265 42.7178 147.358 42.494C147.451 42.2721 147.585 42.0702 147.756 41.8992C147.925 41.7282 148.127 41.5935 148.351 41.5026C148.571 41.4134 148.81 41.3661 149.052 41.3661ZM149.052 41.6336C148.74 41.6336 148.44 41.7245 148.182 41.8973C147.925 42.0702 147.724 42.3139 147.607 42.5996C147.489 42.8852 147.458 43.1999 147.518 43.5037C147.58 43.8075 147.727 44.0858 147.947 44.3059C148.166 44.5242 148.444 44.6734 148.748 44.7353C149.05 44.7953 149.366 44.7644 149.652 44.6461C149.937 44.5279 150.181 44.3278 150.354 44.0694C150.527 43.8111 150.618 43.5091 150.618 43.1999C150.618 42.7851 150.454 42.3867 150.159 42.092C149.863 41.7991 149.466 41.6336 149.052 41.6336Z" fill="#014C94"/>
</svg>
