<svg width="20" height="20" viewBox="0 0 20 20" fill="none" xmlns="http://www.w3.org/2000/svg">
<path d="M10 0.25C8.07164 0.25 6.18657 0.821828 4.58319 1.89317C2.97982 2.96452 1.73013 4.48726 0.992179 6.26884C0.254225 8.05042 0.061142 10.0108 0.437348 11.9021C0.813554 13.7934 1.74215 15.5307 3.10571 16.8943C4.46928 18.2579 6.20656 19.1865 8.09787 19.5627C9.98919 19.9389 11.9496 19.7458 13.7312 19.0078C15.5127 18.2699 17.0355 17.0202 18.1068 15.4168C19.1782 13.8134 19.75 11.9284 19.75 10C19.7473 7.41498 18.7192 4.93661 16.8913 3.10872C15.0634 1.28084 12.585 0.25273 10 0.25ZM10 18.25C8.36831 18.25 6.77326 17.7661 5.41655 16.8596C4.05984 15.9531 3.00242 14.6646 2.378 13.1571C1.75358 11.6496 1.5902 9.99085 1.90853 8.39051C2.22685 6.79016 3.01259 5.32015 4.16637 4.16637C5.32016 3.01259 6.79017 2.22685 8.39051 1.90852C9.99085 1.59019 11.6497 1.75357 13.1571 2.37799C14.6646 3.00242 15.9531 4.05984 16.8596 5.41655C17.7662 6.77325 18.25 8.3683 18.25 10C18.2475 12.1873 17.3775 14.2843 15.8309 15.8309C14.2843 17.3775 12.1873 18.2475 10 18.25ZM13.5306 10.2194C13.6004 10.289 13.6557 10.3717 13.6934 10.4628C13.7312 10.5538 13.7506 10.6514 13.7506 10.75C13.7506 10.8486 13.7312 10.9462 13.6934 11.0372C13.6557 11.1283 13.6004 11.211 13.5306 11.2806L10.5306 14.2806C10.461 14.3504 10.3783 14.4057 10.2872 14.4434C10.1962 14.4812 10.0986 14.5006 10 14.5006C9.90144 14.5006 9.80385 14.4812 9.7128 14.4434C9.62175 14.4057 9.53903 14.3504 9.46938 14.2806L6.46938 11.2806C6.32865 11.1399 6.24959 10.949 6.24959 10.75C6.24959 10.551 6.32865 10.3601 6.46938 10.2194C6.61011 10.0786 6.80098 9.99958 7 9.99958C7.19903 9.99958 7.3899 10.0786 7.53063 10.2194L9.25 11.9397V6.25C9.25 6.05109 9.32902 5.86032 9.46968 5.71967C9.61033 5.57902 9.80109 5.5 10 5.5C10.1989 5.5 10.3897 5.57902 10.5303 5.71967C10.671 5.86032 10.75 6.05109 10.75 6.25V11.9397L12.4694 10.2194C12.539 10.1496 12.6218 10.0943 12.7128 10.0566C12.8038 10.0188 12.9014 9.99941 13 9.99941C13.0986 9.99941 13.1962 10.0188 13.2872 10.0566C13.3783 10.0943 13.461 10.1496 13.5306 10.2194Z" fill="#5B5A59"/>
</svg>
