<svg width="167" height="20" viewBox="0 0 167 20" fill="none" xmlns="http://www.w3.org/2000/svg">
<path d="M0 0.0522461V19.3067H19.5701V9.67948L9.81595 0.0522461H0Z" fill="#5B5A59"/>
<path d="M34.1034 0.36792L34.0898 9.8106L43.7923 19.3067H48.6096V0.36792H34.1034Z" fill="#5B5A59"/>
<path d="M19.5769 0.0522461L19.5701 9.67609L29.268 19.2999L34.0898 19.3067V9.67609L24.4529 0.0522461H19.5769Z" fill="#5B5A59"/>
<g clip-path="url(#clip0_257_30)">
<path d="M52.2017 19.4356V0.338867H59.6699C62.5357 0.338867 64.7875 1.19279 66.4181 2.9218C68.0486 4.62963 68.8745 6.95145 68.8745 9.92252C68.8745 12.8936 68.0486 15.166 66.3687 16.8738C64.7169 18.5817 62.4369 19.4286 59.5216 19.4286H52.2017V19.4356ZM56.0275 15.7659H59.6981C61.3499 15.7659 62.6204 15.1942 63.524 14.0863C64.4275 12.9712 64.8934 11.5527 64.8934 9.84489C64.8934 8.13706 64.4275 6.79619 63.524 5.68116C62.6204 4.56612 61.3499 4.00155 59.6981 4.00155H56.0275V15.7588V15.7659Z" fill="#5B5A59"/>
<path d="M72.1074 19.4356V0.338867H85.0603V3.90275H75.9615V8.01003H84.3897V11.5739H75.9615V15.8647H85.0603V19.4286H72.1074V19.4356Z" fill="#5B5A59"/>
<path d="M88.5757 19.4356V0.338867H91.1098L98.6062 11.1646L106.025 0.338867H108.609V19.4356H104.783V8.60989L99.2274 16.5986H97.9074L92.3521 8.60989V19.4356H88.5757Z" fill="#5B5A59"/>
<path d="M124.484 19.4356L123.065 15.3001H116.394L114.919 19.4356H110.91L118.201 0.338867H121.328L128.514 19.4356H124.484ZM119.747 5.53295L117.474 11.8915H121.971L119.747 5.53295Z" fill="#5B5A59"/>
<path d="M131.846 17.0078C129.961 15.1729 129.03 12.8229 129.03 9.95063C129.03 7.07836 129.982 4.67891 131.895 2.81582C133.837 0.931548 136.159 0 138.898 0C142.335 0 145.441 1.57375 147.121 3.95202L144.559 6.45732C143.062 4.62246 141.248 3.69091 139.102 3.69091C137.373 3.69091 135.926 4.28371 134.761 5.47638C133.597 6.64081 133.004 8.13693 133.004 9.95063C133.004 11.7643 133.575 13.1546 134.733 14.319C135.891 15.4835 137.345 16.048 139.074 16.048C141.298 16.048 143.161 15.1165 144.629 13.2534L147.269 15.6599C145.512 18.0664 142.385 19.7178 138.841 19.7178C136.074 19.7178 133.724 18.8145 131.839 17.0078H131.846Z" fill="#5B5A59"/>
<path d="M150.866 1.63926V0.164307H156.089V1.63926H154.275V6.70632H152.687V1.63926H150.873H150.866ZM163.07 0.164307H164.172V6.71337H162.619V3.3471L160.783 5.83828H160.148L158.313 3.3471V6.71337H156.76V0.164307H157.861L160.445 3.75641L163.063 0.164307H163.07Z" fill="#5B5A59"/>
</g>
<defs>
<clipPath id="clip0_257_30">
<rect width="113.957" height="19.7178" fill="white" transform="translate(52.2017)"/>
</clipPath>
</defs>
</svg>
