<svg width="634" height="76" viewBox="0 0 634 76" fill="none" xmlns="http://www.w3.org/2000/svg">
<path d="M0 0.340515V73.716H74.5784V37.0283L37.4069 0.340515H0Z" fill="white"/>
<path d="M129.962 1.54346L129.911 37.5279L166.885 73.7161H185.243V1.54346H129.962Z" fill="white"/>
<path d="M74.6042 0.340454L74.5784 37.0153L111.535 73.6901L129.911 73.7159V37.0153L93.1861 0.340454H74.6042Z" fill="white"/>
<g clip-path="url(#clip0_1_290)">
<path d="M198.931 74.2064V1.43195H227.391C238.313 1.43195 246.894 4.68609 253.108 11.275C259.322 17.7833 262.469 26.6314 262.469 37.9536C262.469 49.2759 259.322 57.9357 252.919 64.4439C246.625 70.9522 237.936 74.1795 226.827 74.1795H198.931V74.2064ZM213.511 60.2216H227.499C233.794 60.2216 238.636 58.0432 242.079 53.8209C245.522 49.5717 247.297 44.1661 247.297 37.6578C247.297 31.1495 245.522 26.0397 242.079 21.7905C238.636 17.5413 233.794 15.3898 227.499 15.3898H213.511V60.1947V60.2216Z" fill="white"/>
<path d="M274.789 74.2064V1.43195H324.15V15.0133H289.476V30.6654H321.595V44.2468H289.476V60.5981H324.15V74.1795H274.789V74.2064Z" fill="white"/>
<path d="M337.546 74.2064V1.43195H347.203L375.771 42.6869L404.043 1.43195H413.888V74.2064H399.308V32.9514L378.138 63.3951H373.108L351.938 32.9514V74.2064H337.546Z" fill="white"/>
<path d="M474.386 74.2064L468.979 58.4466H443.559L437.937 74.2064H422.657L450.445 1.43195H462.362L489.746 74.2064H474.386ZM456.336 21.2257L447.674 45.457H464.809L456.336 21.2257Z" fill="white"/>
<path d="M502.442 64.9549C495.26 57.9626 491.709 49.007 491.709 38.0612C491.709 27.1155 495.341 17.9716 502.631 10.8716C510.028 3.69102 518.878 0.141052 529.315 0.141052C542.416 0.141052 554.252 6.13835 560.654 15.2015L550.889 24.7488C545.186 17.7564 538.273 14.2065 530.095 14.2065C523.505 14.2065 517.991 16.4655 513.552 21.0106C509.114 25.448 506.854 31.1495 506.854 38.0612C506.854 44.9729 509.033 50.271 513.444 54.7084C517.856 59.1459 523.397 61.2974 529.988 61.2974C538.461 61.2974 545.563 57.7474 551.158 50.6475L561.219 59.8182C554.52 68.989 542.604 75.2821 529.1 75.2821C518.555 75.2821 509.598 71.8397 502.416 64.9549H502.442Z" fill="white"/>
<path d="M574.924 6.388V0.767212H594.83V6.388H587.916V25.6977H581.864V6.388H574.951H574.924ZM621.434 0.767212H625.63V25.7246H619.712V12.8963L612.718 22.3898H610.297L603.303 12.8963V25.7246H597.385V0.767212H601.581L611.427 14.4561L621.407 0.767212H621.434Z" fill="white"/>
</g>
<defs>
<clipPath id="clip0_1_290">
<rect width="434.271" height="75.1411" fill="white" transform="translate(198.931 0.141052)"/>
</clipPath>
</defs>
</svg>
