<svg width="167" height="20" viewBox="0 0 167 20" fill="none" xmlns="http://www.w3.org/2000/svg">
<path d="M0 0.334473V19.5889H19.5701V9.96171L9.81595 0.334473H0Z" fill="#879896"/>
<path d="M34.1034 0.650146L34.0898 10.0928L43.7923 19.589H48.6096V0.650146H34.1034Z" fill="#879896"/>
<path d="M19.5769 0.334473L19.5701 9.95832L29.268 19.5822L34.0898 19.5889V9.95832L24.4529 0.334473H19.5769Z" fill="#879896"/>
<g clip-path="url(#clip0_171_245)">
<path d="M52.2017 19.7178V0.621094H59.6699C62.5357 0.621094 64.7875 1.47501 66.4181 3.20402C68.0486 4.91186 68.8745 7.23368 68.8745 10.2048C68.8745 13.1758 68.0486 15.4482 66.3687 17.1561C64.7169 18.8639 62.4369 19.7108 59.5216 19.7108H52.2017V19.7178ZM56.0275 16.0481H59.6981C61.3499 16.0481 62.6204 15.4765 63.524 14.3685C64.4275 13.2535 64.8934 11.835 64.8934 10.1271C64.8934 8.41928 64.4275 7.07842 63.524 5.96338C62.6204 4.84835 61.3499 4.28377 59.6981 4.28377H56.0275V16.041V16.0481Z" fill="#879896"/>
<path d="M72.1074 19.7178V0.621094H85.0603V4.18497H75.9615V8.29225H84.3897V11.8561H75.9615V16.1469H85.0603V19.7108H72.1074V19.7178Z" fill="#879896"/>
<path d="M88.5756 19.7178V0.621094H91.1097L98.6061 11.4468L106.025 0.621094H108.608V19.7178H104.783V8.89211L99.2273 16.8808H97.9073L92.352 8.89211V19.7178H88.5756Z" fill="#879896"/>
<path d="M124.484 19.7178L123.065 15.5823H116.394L114.919 19.7178H110.91L118.201 0.621094H121.328L128.514 19.7178H124.484ZM119.747 5.81518L117.474 12.1737H121.971L119.747 5.81518Z" fill="#879896"/>
<path d="M131.846 17.29C129.961 15.4552 129.03 13.1051 129.03 10.2329C129.03 7.36058 129.982 4.96114 131.895 3.09804C133.837 1.21377 136.159 0.282227 138.898 0.282227C142.335 0.282227 145.441 1.85598 147.121 4.23425L144.559 6.73955C143.062 4.90468 141.248 3.97313 139.102 3.97313C137.373 3.97313 135.926 4.56594 134.761 5.7586C133.597 6.92304 133.004 8.41916 133.004 10.2329C133.004 12.0466 133.575 13.4368 134.733 14.6013C135.891 15.7657 137.345 16.3303 139.074 16.3303C141.298 16.3303 143.161 15.3987 144.629 13.5356L147.269 15.9421C145.512 18.3486 142.385 20 138.841 20C136.074 20 133.724 19.0967 131.839 17.29H131.846Z" fill="#879896"/>
<path d="M150.866 1.92148V0.446533H156.089V1.92148H154.275V6.98854H152.687V1.92148H150.873H150.866ZM163.07 0.446533H164.172V6.9956H162.619V3.62932L160.783 6.12051H160.148L158.313 3.62932V6.9956H156.76V0.446533H157.861L160.445 4.03864L163.063 0.446533H163.07Z" fill="#879896"/>
</g>
<defs>
<clipPath id="clip0_171_245">
<rect width="113.957" height="19.7178" fill="white" transform="translate(52.2017 0.282227)"/>
</clipPath>
</defs>
</svg>
