<svg width="20" height="20" viewBox="0 0 20 20" fill="none" xmlns="http://www.w3.org/2000/svg">
<path d="M18.3333 5.94958V14.2829C18.3333 14.8355 18.1138 15.3654 17.7231 15.7561C17.3324 16.1468 16.8025 16.3663 16.25 16.3663H3.74999C3.19746 16.3663 2.66755 16.1468 2.27685 15.7561C1.88615 15.3654 1.66666 14.8355 1.66666 14.2829V5.94958" stroke="#5B5A59" stroke-width="1.4" stroke-linecap="round" stroke-linejoin="round"/>
<path d="M18.3333 5.94961C18.3333 5.39707 18.1138 4.86717 17.7231 4.47647C17.3324 4.08577 16.8025 3.86627 16.25 3.86627H3.74999C3.19746 3.86627 2.66755 4.08577 2.27685 4.47647C1.88615 4.86717 1.66666 5.39707 1.66666 5.94961L8.89582 10.4635C9.22693 10.6704 9.60953 10.7802 9.99999 10.7802C10.3904 10.7802 10.773 10.6704 11.1042 10.4635L18.3333 5.94961Z" stroke="#5B5A59" stroke-width="1.4" stroke-linecap="round" stroke-linejoin="round"/>
</svg>
