<svg width="165" height="69" viewBox="0 0 165 69" fill="none" xmlns="http://www.w3.org/2000/svg">
<g clip-path="url(#clip0_110_218)">
<path d="M0 0V36.0718H110.067V18.0413L91.5549 0H0Z" fill="white"/>
<path d="M134.012 -0.150024L134.012 18.0429L152.114 36.3291H158.159L158.159 -0.150024H134.012Z" fill="white"/>
<path d="M109.479 -0.150024L109.463 18.0895L127.976 36.3291H134.415V18.0895L115.902 -0.150024H109.479Z" fill="white"/>
</g>
<g clip-path="url(#clip1_110_218)">
<path d="M0 68.6556V45.3582H8.98336C12.4307 45.3582 15.1393 46.3999 17.1007 48.5092C19.062 50.5928 20.0555 53.4253 20.0555 57.0499C20.0555 60.6745 19.062 63.4468 17.0412 65.5303C15.0543 67.6138 12.3118 68.6469 8.80505 68.6469H0V68.6556ZM4.60206 64.1786H9.01732C11.0042 64.1786 12.5326 63.4812 13.6194 62.1295C14.7062 60.7692 15.2666 59.0387 15.2666 56.9552C15.2666 54.8717 14.7062 53.2359 13.6194 51.8756C12.5326 50.5153 11.0042 49.8265 9.01732 49.8265H4.60206V64.17V64.1786Z" fill="white"/>
<path d="M23.9443 68.6556V45.3582H39.5251V49.706H28.5803V54.7167H38.7185V59.0645H28.5803V64.2991H39.5251V68.6469H23.9443V68.6556Z" fill="white"/>
<path d="M43.7535 68.6556V45.3582H46.8018L55.8191 58.5652L64.743 45.3582H67.8507V68.6556H63.2486V55.4485L56.5663 65.1945H54.9785L48.2962 55.4485V68.6556H43.7535Z" fill="white"/>
<path d="M86.9467 68.6556L85.24 63.6104H77.2161L75.4415 68.6556H70.6187L79.3898 45.3582H83.1513L91.795 68.6556H86.9467ZM81.2493 51.6948L78.5152 59.452H83.9239L81.2493 51.6948Z" fill="white"/>
<path d="M95.8027 65.6939C93.5357 63.4555 92.4149 60.5885 92.4149 57.0844C92.4149 53.5803 93.5611 50.6531 95.8622 48.3802C98.1972 46.0814 100.991 44.9449 104.285 44.9449C108.42 44.9449 112.156 46.8649 114.177 49.7663L111.095 52.8227C109.295 50.5842 107.113 49.4477 104.531 49.4477C102.451 49.4477 100.71 50.1709 99.3095 51.6259C97.9085 53.0465 97.1952 54.8717 97.1952 57.0844C97.1952 59.297 97.883 60.9931 99.2755 62.4137C100.668 63.8343 102.417 64.523 104.497 64.523C107.172 64.523 109.414 63.3866 111.18 61.1137L114.355 64.0495C112.241 66.9854 108.48 69 104.217 69C100.889 69 98.0613 67.898 95.7942 65.6939H95.8027Z" fill="white"/>
<path d="M118.681 46.9448V45.1454H124.965V46.9448H122.782V53.1264H120.872V46.9448H118.69H118.681ZM133.362 45.1454H134.687V53.135H132.819V49.0283L130.611 52.0675H129.847L127.639 49.0283V53.135H125.771V45.1454H127.096L130.203 49.5276L133.354 45.1454H133.362Z" fill="white"/>
</g>
<defs>
<clipPath id="clip0_110_218">
<rect width="165" height="36.0826" fill="white"/>
</clipPath>
<clipPath id="clip1_110_218">
<rect width="137.077" height="24.055" fill="white" transform="translate(0 44.9449)"/>
</clipPath>
</defs>
</svg>
