<svg width="20" height="19" viewBox="0 0 20 19" fill="none" xmlns="http://www.w3.org/2000/svg">
<path d="M12.2516 17.3852L12.2607 17.3915C13.0477 17.8927 13.9822 18.1103 14.9096 18.0084C15.8371 17.9066 16.7021 17.4913 17.3616 16.8314L17.9345 16.2584C18.0615 16.1315 18.1622 15.9809 18.231 15.815C18.2997 15.6492 18.335 15.4715 18.335 15.292C18.335 15.1125 18.2997 14.9347 18.231 14.7689C18.1622 14.6031 18.0615 14.4524 17.9345 14.3255L15.518 11.9108C15.3911 11.7838 15.2404 11.6831 15.0746 11.6144C14.9088 11.5457 14.731 11.5103 14.5515 11.5103C14.372 11.5103 14.1943 11.5457 14.0285 11.6144C13.8626 11.6831 13.712 11.7838 13.5851 11.9108C13.3289 12.1669 12.9814 12.3108 12.6191 12.3108C12.2568 12.3108 11.9093 12.1669 11.6531 11.9108L7.78917 8.04592C7.53302 7.7897 7.38913 7.44223 7.38913 7.07993C7.38913 6.71763 7.53302 6.37017 7.78917 6.11394C7.91613 5.98706 8.01685 5.8364 8.08557 5.67057C8.15429 5.50474 8.18966 5.327 8.18966 5.1475C8.18966 4.968 8.15429 4.79026 8.08557 4.62443C8.01685 4.4586 7.91613 4.30794 7.78917 4.18105L5.37351 1.76631C5.11729 1.51017 4.76982 1.36627 4.40752 1.36627C4.04522 1.36627 3.69776 1.51017 3.44154 1.76631L2.86768 2.33926C2.20783 2.9989 1.79277 3.86391 1.69108 4.79137C1.58939 5.71884 1.80716 6.65324 2.3084 7.44018L2.31387 7.44929C4.96105 11.3659 8.33449 14.7387 12.2516 17.3852V17.3852Z" stroke="#5B5A59" stroke-width="1.4" stroke-linecap="round" stroke-linejoin="round"/>
</svg>
